<?xml version="1.0" encoding="UTF-8" standalone="no"?>
<svg
  version="1.1"
  viewBox="0 0 3839 1414.3"
  xmlns="http://www.w3.org/2000/svg">
  <style type="text/css">
    .st0{fill:#1900cd;fill-opacity:1;}
    .st1{fill:#FFFFFF;}
  </style>
  <g>
    <path
      class="st0"
      d="M3529.5,503.5L3839,16.6h-832.7c-61.3,0.3-122.8,17.9-178.4,52.6c-22.2,13.9-42.9,30.2-62.2,48.4C2713.1,55,2657.6,16.6,2567.9,16.6H1156.6l-45.4,139.7L1088,16.6H780l-11.2,25.5L739,31.8C577.7-24.1,421.2-6.2,273.8,85C120.5,179.9,49.2,328.4,67.8,514.4c11.2,111.8,82,211.4,189.5,266.3c31.3,16.1,64.2,27.5,98,34.5L0,1414.1h991.1c157.5,0,253.6-47.4,307.2-107.6l66.6,107.9h978v-136.8l175.9,136.8h1207V787.5h-239.3L3529.5,503.5z" />
    <g>
      <g>
        <path
          class="st1"
          d="M1614,891.7l-3.5,6.3L1465,1162.3l-154.4-264.6l-3.5-6h-136.5l11.2,18.4l26.3,43.3c-42.1-40-106.6-61.7-190.5-61.7H742.9v343.7L539.5,897.9l-3.5-5.9h-105l-3.5,6l-231.4,389.9l-10.9,18.3h91v0.1h202.2v-91.6h-119L478.4,1000l168.2,300l3.5,6.2h135.5l-0.2-0.4h208.2c179.5,0,270.6-70.1,270.6-208.4c0-24-3.1-46.2-9.1-66.3L1418,1300l3.5,5.8h79.3l3.5-6.1l226.1-389.9l10.6-18.2H1614z M973.2,1209.3H862.7V985.6h155.7c84.2,0,123.5,34.1,123.5,107.1C1141.9,1179.8,1099.4,1209.3,973.2,1209.3z" />
        <polyline
          class="st1"
          points="2533.8,891.7 2521.7,891.7 2521.7,1138 2210.3,894.2 2207,891.7 2125.3,891.7 2125.3,1235.6 1921.6,897.7 1918,891.8 1813,891.8 1809.5,897.8 1578.1,1287.7 1567.2,1306 1690.6,1306 1690.9,1305.6 1860.7,1305.6 1860.7,1214 1741.6,1214 1860.6,999.8 2028.7,1299.8 2032.2,1306 2167.8,1306 2167.7,1305.8 2236.2,1305.8 2236.2,1056.1 2546.4,1303.2 2549.7,1305.8 2631.2,1305.8 2631.2,891.7 2533.8,891.7" />
        <path
          class="st1"
          d="M3023.8,891.8H2781c-85.2,0-113.9,26.4-113.9,104.5v205.2c0,77.9,28.7,104.3,113.9,104.3h242.8c85.3,0,114.1-26.4,114.1-104.3v-58.2l-12.1-0.1l-95.6-0.2h-12.2v63.8h-231.4V988.1h231.4v57.5l12.2,0.1l95.5,0.3l12.2,0v-49.9C3138,917.2,3110.2,891.8,3023.8,891.8" />
        <polyline
          class="st1"
          points="3611.9,1209.3 3296.7,1209.3 3296.7,1136.7 3484.8,1136.7 3484.8,1045.3 3296.7,1045.3 3296.7,985.5 3619.5,985.5 3619.5,891.8 3176.9,891.8 3176.9,1305.8 3624.1,1305.8 3624.1,1209.3 3611.9,1209.3" />
      </g>
    </g>
    <path
      class="st1"
      d="M1549,119.5l-137.6,323.8L1352,119.5h-120.1l-155.2,477.7l-79.6-477.7H847.4L620.7,634.1L654.5,419H429.2l-17.2,110.7h94.1L495.3,589c-54,21.5-145.7,13.4-184.9-56.7c-24.8-44.4-47.8-143.7,56.6-234.8c85-74.2,232.1-87.7,317.1-48.6c0,0,10.8-62.1,18.9-120.1c-163.2-56.7-290.1-9.5-375,43.2c-115.7,71.6-171.4,180.8-156.5,329.1c17.2,172.2,240.1,280.7,429,171.4c1.7-1,3-1.8,4.3-2.5L587,710.4h126.8l79.6-176.7h140.3l31,176.7h206.4l105.2-330.6l67.5,330.6h81l157.9-365.6l16.1,365.6h121.4l-25.6-590.9H1549 M842,419l51.3-114.6L915.5,419H842z" />
    <polyline
      class="st1"
      points="1729.8,710.4 2068.4,710.4 2088.7,583.6 1876.8,583.6 1893.6,478.4 2077.9,478.4 2098.1,351.6 1911.9,351.6 1928.1,246.3 2139.9,246.3 2160.2,119.5 1824.2,119.5 1729.8,710.4" />
    <polygon
      class="st1"
      points="3504,119.5 3383.9,312.4 3308.4,119.5 3169.4,119.5 3312.4,431.1 3268.4,710.4 3389.8,710.4 3427.1,463.5 3645.7,119.5" />
    <path
      class="st1"
      d="M3052.8,124.6c-134.6-31.1-274.2,76.1-311.9,239.6c-37.8,163.3,40.8,320.9,175.4,352c134.6,31.1,274.2-76.1,311.9-239.5C3265.9,313.3,3187.4,155.7,3052.8,124.6 M3100.3,471.9c-32.8,98.3-111.4,154.7-175.7,126c-64.2-28.8-89.7-131.7-56.9-230c32.7-98.3,111.3-154.7,175.6-125.9C3107.6,270.7,3133.1,373.7,3100.3,471.9z" />
    <path
      class="st1"
      d="M2571.3,122.8c-65.6-1.1-227.6,0-227.6,0h1.3l-93.7,586.4c0,0,194.2,0,273.1,0c112.5,0,277-165.8,127.2-301.1C2805.6,248.7,2653,124.2,2571.3,122.8 M2500.3,595.5c-67,0-107.1,0-107.1,0l18.8-117.9c0,0,25.4,0,101.7,0C2610.1,477.6,2607.4,595.5,2500.3,595.5z M2515,357.1c-67,0-84.4,0-84.4,0l18.8-109.8c0,0,2.7,0,79,0C2614.1,247.3,2596.7,357.1,2515,357.1z" />
  </g>
</svg>
