<?xml version="1.0" encoding="UTF-8" standalone="no"?>
<svg
  version="1.1"
  viewBox="0 0 3839 647.3"
  xmlns="http://www.w3.org/2000/svg">
  <style type="text/css">
    .st0{fill:#30308F;}
    .st1{fill:#FFFFFF;}
  </style>
  <g>
    <g>
      <g>
        <g>
          <g>
            <path
              class="st0"
              d="M781.3,330.6L758,210.6l-53.7,120.1H781.3 M1623.9,635.5h-127.1l-17-382.7l-165.3,382.7h-84.7l-70.7-346l-110.2,346h-216l-32.5-185H653.5l-83.3,185H437.5L710,17h156.8l83.4,500L1112.7,17h125.7l62.1,338.9L1444.4,17H1597L1623.9,635.5" />
            <polyline
              class="st0"
              points="1988.3,635.6 2009.5,502.9 1787.6,502.9 1805.3,392.7 1998.2,392.7 2019.4,259.9 1824.4,259.9 1841.3,149.8 2063,149.8 2084.2,17 1732.5,17 1633.8,635.6 1988.3,635.6" />
            <polyline
              class="st0"
              points="3639.3,17 3491.1,17 3365.4,219 3286.2,17 3140.8,17 3290.5,343.2 3244.4,635.6 3371.5,635.6 3410.6,377.1 3639.3,17" />
            <path
              class="st0"
              d="M2884.6,517.9c67.3,30.1,149.6-28.9,183.9-131.9c34.3-102.9,7.6-210.7-59.7-240.8c-67.2-30.1-149.5,29-183.9,131.9C2790.8,380,2817.4,487.8,2884.6,517.9 M2692.3,273.1c39.5-171,185.7-283.2,326.5-250.7c140.9,32.6,223,197.5,183.6,368.5C3162.9,562,3016.7,674.1,2875.9,641.6C2735.1,609.1,2652.8,444.2,2692.3,273.1" />
            <path
              class="st0"
              d="M166.2,72.1C45.2,147.1-12.1,261.3,3.5,416.7c18,180.3,251.4,293.8,449.2,179.5c17.3-10,10.5-8.5,17-14.2l39.6-251.3h-236l-18.1,115.8h98.6l-11.3,62.2C285,531.3,189,522.8,148.1,449.3c-25.9-46.5-50-150.4,59.4-245.7c89-77.7,242.9-91.8,331.9-50.8c0,0,11.3-65,19.8-125.8C388,−32.4,255,17,166.2,72.1" />
            <path
              class="st0"
              d="M2277.8,20.5l-98.2,613.9c0,0,203.2,0,285.9,0c117.8,0,289.9-173.6,133.2-315.4c161.2-166.8,1.4-297.1-84.1-298.5c-68.7-1.2-238.3,0-238.3,0h1.5 M2347.9,391.9c0,0,26.6,0,106.5,0c100.9,0,98.2,123.4-14,123.4c-70.1,0-112.2,0-112.2,0L2347.9,391.9 M2387.2,150.9c0,0,2.8,0,82.7,0c89.7,0,71.5,115-14,115c-70.1,0-88.3,0-88.3,0L2387.2,150.9" />
          </g>
        </g>
      </g>
    </g>
  </g>
</svg>
