<svg xmlns="http://www.w3.org/2000/svg" viewBox="0 0 15.8 24" id="wii">
  <!-- Solo la parte "Wii" del logo original, en gris -->
  <!-- W -->
  <path fill="#888888" d="M2.708,15.5c0.627,0,0.917-0.446,1.045-0.844c0.141-0.413,1.08-3.82,1.08-3.82s0.942,3.409,1.069,3.82c0.14,0.398,0.431,0.844,1.047,0.844c0.547,0,0.905-0.378,1.07-0.844c0.196-0.604,1.65-5.768,1.65-5.768H8.148L6.89,13.734c0,0-0.963-3.638-1.125-4.16c-0.15-0.517-0.479-0.742-0.93-0.742H4.833c-0.465,0-0.776,0.229-0.938,0.742c-0.152,0.522-1.116,4.16-1.116,4.16L1.512,8.889H0c0,0,1.451,5.163,1.65,5.768C1.801,15.123,2.171,15.5,2.708,15.5L2.708,15.5z"/>
  <path fill="#777777" d="M4.835,8.831H4.833c-0.465,0-0.776,0.229-0.938,0.742c-0.152,0.522-1.116,4.16-1.116,4.16L1.512,8.889H0c0,0,1.451,5.163,1.65,5.768C1.801,15.123,2.171,15.5,2.708,15.5c0.627,0,0.917-0.446,1.045-0.844c0.141-0.413,1.08-3.82,1.08-3.82s0.001,0.002,0.002,0.007V8.831L4.835,8.831z"/>
  <!-- i (primera) -->
  <polygon fill="#888888" points="10.438 15.454 11.879 15.454 11.879 10.882 10.438 10.882 10.438 15.454"/>
  <path fill="#888888" d="M11.133,8.5c-0.465,0-0.835,0.352-0.835,0.799c0.007,0.445,0.382,0.801,0.835,0.796c0.488,0,0.873-0.351,0.873-0.795C12.006,8.853,11.621,8.5,11.133,8.5L11.133,8.5z"/>
  <polygon fill="#777777" points="11.158 10.882 10.438 10.882 10.438 15.454 11.158 15.454 11.158 10.882"/>
  <path fill="#777777" d="M11.133,8.5c-0.465,0-0.835,0.352-0.835,0.799c0.007,0.442,0.377,0.796,0.826,0.796c0.003,0,0.006,0,0.009,0c0.008,0,0.017,0,0.025,0V8.5C11.15,8.5,11.142,8.5,11.133,8.5L11.133,8.5z"/>
  <!-- i (segunda) -->
  <path fill="#888888" d="M14.063,8.5c-0.465,0-0.848,0.352-0.848,0.799c0,0.432,0.383,0.796,0.848,0.796c0.477,0,0.861-0.351,0.861-0.795C14.924,8.853,14.539,8.5,14.063,8.5L14.063,8.5z"/>
  <polygon fill="#888888" points="13.354 15.454 14.796 15.454 14.796 10.882 13.354 10.882 13.354 15.454"/>
  <path fill="#777777" d="M14.063,8.5c-0.465,0-0.848,0.352-0.848,0.799c0,0.432,0.383,0.796,0.848,0.796c0.002,0,0.004,0,0.007,0V8.5C14.068,8.5,14.065,8.5,14.063,8.5L14.063,8.5z"/>
  <polygon fill="#777777" points="14.07 10.882 13.354 10.882 13.354 15.454 14.07 15.454 14.07 10.882"/>
</svg>
