<?xml version="1.0" encoding="UTF-8"?>
<svg
  xmlns="http://www.w3.org/2000/svg"
  viewBox="0 0 3840 866.1">
  <g fill="#FFFFFF">
    <polyline points="1461.3,424.5 1291.2,720.2 1504,720.2 1504,653 1409.1,653 1496.9,506.2 1615.7,720.2 1703.9,720.2 1532.3,424.5 1461.3,424.5"/>
    <polyline points="1896.8,720.2 1987.8,562.1 1987.8,720.2 2060.9,720.2 2061.1,424.5 1988.1,424.5 1867.4,633.9 1746.6,424.5 1673.8,424.5 1673.9,720.2 1746.9,720.2 1746.9,562.1 1838.1,720.2 1896.8,720.2"/>
    <path d="M1300.7,542.2H1116v62.4h107.1V653H1032V488.6h265.5v-64.1h-268c-58,0-76.8,17.8-76.8,73.5v148.6c0,55.9,18.7,73.7,76.8,73.7h194.6c58,0,76.7-17.8,76.7-73.7V542.2"/>
    <path d="M2708.8,424.5H2535c-58.3,0-76.8,17.8-76.8,73.5v148.5c0,55.9,18.5,73.6,76.8,73.6h173.8c58,0,76.9-17.7,76.9-73.6v-53.9h-79.5V653h-168.7V488.6h168.7v53.5h79.5V498C2785.7,442.3,2766.8,424.5,2708.8,424.5"/>
    <path d="M3069.7,653h-172.9V424.5h-79.4v222c0,55.9,18.7,73.7,76.8,73.7h178c58.2,0,76.9-17.8,76.9-73.7v-222h-79.4V653"/>
    <path d="M3430.8,637c0,14.3-3.2,18.1-24.7,18.1h-142.6v-57.2h142.6c21.5,0,24.7,4,24.7,18V637 M3263.5,483.9h142.3c22,0,23,4.7,23,13.3v26.9c0,8.5-1,13.4-23,13.4h-142.3V483.9z M3472.7,568.2c19.1-9.1,29.6-25.9,29.6-47.8v-34.6c0-41.9-22.4-61.3-70.4-61.3H3184v295.7h230.6c60.1,0,90.3-20.8,90.3-62.5v-35.9C3505,596.6,3493.6,578,3472.7,568.2z"/>
    <polyline points="3614.3,597.8 3744.3,597.8 3744.3,535.7 3614.3,535.7 3614.3,486.7 3837.3,486.7 3837.3,424.5 3534.8,424.5 3534.8,720.2 3840,720.2 3840,653 3614.3,653 3614.3,597.8"/>
    <polyline points="2175.6,597.8 2305.5,597.8 2305.5,535.7 2175.6,535.7 2175.6,486.7 2398.5,486.7 2398.5,424.5 2096.2,424.5 2096.2,720.2 2401.2,720.2 2401.2,653 2175.6,653 2175.6,597.8"/>
    <polyline points="3016.9,342.8 3016.9,115.6 2973.6,115.6 2973.6,260.4 2900.2,115.6 2841.9,115.6 2841.9,342.8 2885,342.8 2885,165.7 2974,342.8 3016.9,342.8"/>
    <polyline points="1764.6,165.7 1853.7,342.8 1896.5,342.8 1896.5,115.6 1853.3,115.6 1853.3,260.4 1779.7,115.6 1721.4,115.6 1721.4,342.8 1764.6,342.8 1764.6,165.7"/>
    <polyline points="1056.4,165.7 1145.4,342.8 1188.2,342.8 1188.2,115.6 1144.9,115.6 1144.9,260.4 1071.5,115.6 1013.2,115.6 1013.2,342.8 1056.4,342.8 1056.4,165.7"/>
    <rect x="1430.4" y="115.6" width="48.7" height="227.2"/>
    <polyline points="2163.5,342.8 2209.8,342.8 2209.8,151.8 2282.7,151.8 2282.7,115.7 2090.4,115.7 2090.4,151.8 2163.5,151.8 2163.5,342.8"/>
    <path d="M3271.8,150.5h61c14.9,0,30.3,11.4,30.3,25.2V283c0,14.7-15.8,24.9-30.3,24.9h-61V150.5 M3334.1,342.8c39.8,0,71.9-26.3,71.9-58.6V174.3c0-32.5-32.1-58.8-71.9-58.8H3229v227.2H3334.1z"/>
    <path d="M3742.1,284.6c0,13.7-15.5,25-30.3,25h-36c-14.9,0-30.3-11.3-30.3-25V173.9c0-14.1,15.4-25.1,30.3-25.1h36c14.8,0,30.3,11,30.3,25.1V284.6 M3785,172.6c0-32.4-32.4-58.6-71.8-58.6h-38.8c-39.6,0-71.8,26.3-71.8,58.6v113.2c0,32.5,32.2,58.7,71.8,58.7h38.8c39.5,0,71.8-26.2,71.8-58.7V172.6z"/>
    <path d="M2461.4,284.4c0,31.6,30.5,57.1,68.6,58.4h100.1v-36h-95.8c-15,0-30.3-9.8-30.3-23.6v-41.1h126.1v-36.4H2504v-30.4c0-13.7,15.3-23.7,30.3-23.7h95.8v-35.9h-98.5c-38.8,0.8-70.1,26.6-70.1,58.5L2461.4,284.4"/>
    <polyline fill="#7A69D8" points="192.4,546 362.2,644 362.3,447.9 192.4,349.9 192.4,546"/>
    <polyline fill="#6A58C8" points="119.5,588.1 362.3,728.3 362.3,866.1 0,657 0,238.8 119.5,307.8 119.5,588.1"/>
    <polyline fill="#FFFFFF" points="379.6,221.9 209.9,319.9 379.6,417.9 549.4,319.9 379.6,221.9"/>
    <polyline fill="#A59AF3" points="379.6,137.6 583.9,255.8 703.4,186.9 379.6,0 17.8,208.9 137,277.8 379.6,137.6"/>
    <polyline fill="#5A45B0" points="639.7,588.1 639.7,445.6 566.7,487.7 566.7,546 396.9,644.1 396.9,644.3 396.9,447.9 759.1,238.8 759.1,657 396.9,866.1 396.9,728.4 639.7,588.1"/>
  </g>
</svg>
